<svg xmlns="http://www.w3.org/2000/svg" width="960" height="240" viewBox="0 0 960 240" role="img" aria-labelledby="title desc">
  <title id="title">G-BASHWARE CamerAim</title>
  <desc id="desc">A camera aperture and crosshair beside the G-BASHWARE CamerAim wordmark.</desc>
  <defs>
    <linearGradient id="bg" x1="0" x2="1" y1="0" y2="1">
      <stop offset="0" stop-color="#111827"/>
      <stop offset="1" stop-color="#020617"/>
    </linearGradient>
    <linearGradient id="accent" x1="0" x2="1">
      <stop offset="0" stop-color="#22d3ee"/>
      <stop offset="1" stop-color="#38bdf8"/>
    </linearGradient>
  </defs>
  <rect width="960" height="240" rx="32" fill="url(#bg)"/>
  <g transform="translate(120 120)">
    <circle r="72" fill="#0f172a" stroke="#334155" stroke-width="8"/>
    <path d="M-52-34h34L-2-52h38l16 18h20a14 14 0 0 1 14 14v74a14 14 0 0 1-14 14H-72a14 14 0 0 1-14-14v-74a14 14 0 0 1 14-14z" fill="#1e293b" stroke="url(#accent)" stroke-width="6"/>
    <circle r="34" fill="#020617" stroke="#38bdf8" stroke-width="6"/>
    <path d="M0-56V-8M0 8v48M-56 0H-8M8 0h48" stroke="#f43f5e" stroke-width="4" stroke-linecap="round"/>
    <circle r="3" fill="#e2e8f0"/>
  </g>
  <text x="230" y="94" fill="#94a3b8" font-family="Segoe UI,Arial,sans-serif" font-size="30" font-weight="700" letter-spacing="5">G-BASHWARE</text>
  <text x="226" y="158" fill="#f8fafc" font-family="Segoe UI,Arial,sans-serif" font-size="64" font-weight="800">Camer<tspan fill="#38bdf8">Aim</tspan></text>
  <text x="230" y="195" fill="#64748b" font-family="Segoe UI,Arial,sans-serif" font-size="18" letter-spacing="2">CAMERA POSITIONING FOR UGS</text>
</svg>
